<?xml version="1.0" standalone="no"?>
<!DOCTYPE svg PUBLIC "-//W3C//DTD SVG 20010904//EN"
 "http://www.w3.org/TR/2001/REC-SVG-20010904/DTD/svg10.dtd">
<svg version="1.0" xmlns="http://www.w3.org/2000/svg"
 width="300.000000pt" height="300.000000pt" viewBox="0 0 300.000000 300.000000"
 preserveAspectRatio="xMidYMid meet">
<metadata>
Created by potrace 1.14, written by Peter Selinger 2001-2017
</metadata>
<g transform="translate(0.000000,300.000000) scale(0.100000,-0.100000)"
fill="#000000" stroke="none">
<path d="M0 1500 l0 -1500 35 0 c28 0 35 4 35 20 0 25 8 25 40 0 25 -19 51
-20 1458 -20 l1432 0 0 1500 0 1500 -1500 0 -1500 0 0 -1500z m1882 1029 c17
-9 19 -17 13 -56 -3 -24 -15 -53 -26 -64 -11 -11 -22 -33 -26 -49 -3 -20 -17
-36 -40 -50 -34 -20 -60 -19 -47 2 4 6 -1 8 -15 3 -11 -3 -21 -4 -21 -2 0 2
-4 28 -10 56 -13 71 4 103 82 151 37 23 60 25 90 9z m519 -160 c-18 -11 -36
-18 -39 -14 -9 8 31 34 53 35 15 0 12 -5 -14 -21z m-514 -16 c-9 -9 -20 -14
-24 -10 -3 4 2 14 13 21 25 19 33 10 11 -11z m163 -13 c0 -11 -7 -23 -15 -27
-21 -7 -25 -2 -18 25 7 28 33 29 33 2z m-143 -32 c-3 -8 -6 -5 -6 6 -1 11 2
17 5 13 3 -3 4 -12 1 -19z m133 -60 c0 -6 -7 -5 -15 2 -8 7 -15 17 -15 22 0 6
7 5 15 -2 8 -7 15 -17 15 -22z m-160 -28 c0 -5 -9 -10 -21 -10 -11 0 -17 5
-14 10 3 6 13 10 21 10 8 0 14 -4 14 -10z m170 -43 c0 -5 -9 2 -20 16 -11 14
-20 29 -20 33 0 4 9 -3 20 -16 11 -13 20 -27 20 -33z m-245 14 c-8 -13 -44
-20 -51 -10 -3 5 5 13 18 18 24 9 42 5 33 -8z m-130 -11 c-3 -5 -12 -10 -20
-10 -8 0 -17 5 -20 10 -4 6 5 10 20 10 15 0 24 -4 20 -10z m350 0 c3 -5 2 -10
-4 -10 -5 0 -13 5 -16 10 -3 6 -2 10 4 10 5 0 13 -4 16 -10z m-105 -29 c0 -12
-20 -25 -27 -18 -7 7 6 27 18 27 5 0 9 -4 9 -9z m594 3 c9 -3 16 -15 16 -25 0
-13 7 -19 22 -19 l22 0 -21 -20 c-12 -10 -33 -22 -47 -26 -14 -3 -26 -10 -26
-15 0 -5 -13 -9 -29 -9 -25 0 -31 5 -36 30 -4 17 -12 30 -18 31 -7 0 -2 4 11
9 12 5 22 14 22 20 0 5 11 10 24 10 14 0 28 5 31 10 7 12 8 12 29 4z m-797
-34 c-4 -16 -2 -32 3 -35 17 -11 11 -25 -11 -25 -15 0 -19 5 -15 18 3 9 8 29
12 45 8 37 18 35 11 -3z m308 20 c3 -5 1 -10 -4 -10 -6 0 -11 5 -11 10 0 6 2
10 4 10 3 0 8 -4 11 -10z m5 -30 c0 -5 -4 -10 -10 -10 -5 0 -10 5 -10 10 0 6
5 10 10 10 6 0 10 -4 10 -10z m-26 -95 c-3 -14 -12 -25 -20 -25 -8 0 -14 -4
-14 -10 0 -5 -6 -10 -14 -10 -20 0 -14 25 12 53 12 13 22 30 22 38 1 10 3 10
11 -3 5 -10 7 -29 3 -43z m-141 -13 c15 -4 27 -11 27 -16 -1 -5 3 -12 9 -16
17 -10 33 -73 18 -67 -7 3 -11 10 -9 16 1 6 -2 11 -8 11 -5 0 -7 6 -4 14 3 8
-3 19 -14 25 -17 9 -20 8 -17 -7 2 -9 4 -19 5 -22 1 -3 2 -16 1 -30 -2 -20 0
-22 8 -10 13 18 14 1 2 -19 -10 -15 -31 -7 -31 13 0 7 -14 23 -31 35 -22 16
-28 26 -19 31 9 5 9 9 1 14 -6 4 -11 16 -11 28 0 16 4 19 23 13 12 -3 35 -10
50 -13z m-9 -158 c3 -8 2 -12 -4 -9 -6 3 -10 10 -10 16 0 14 7 11 14 -7z m16
-41 c0 -2 -6 -11 -14 -18 -11 -12 -13 -10 -13 10 0 16 4 22 13 18 8 -3 14 -7
14 -10z m-163 -8 c-5 -11 -1 -12 17 -5 30 11 40 2 20 -17 -8 -9 -12 -18 -9
-22 4 -3 18 7 31 22 27 31 39 29 46 -8 5 -24 -5 -41 -27 -45 -25 -6 -33 -13
-38 -31 -3 -12 -11 -17 -20 -13 -10 4 -21 -4 -31 -23 -9 -15 -27 -41 -42 -58
l-26 -30 6 27 c5 22 3 26 -10 21 -15 -5 -15 -3 0 25 20 39 20 48 1 32 -8 -7
-15 -9 -16 -4 -1 5 -7 -11 -15 -36 -7 -25 -12 -33 -10 -18 2 18 -1 25 -10 21
-7 -2 -10 -12 -8 -21 5 -16 5 -16 -5 -1 -14 22 -6 89 17 142 19 43 20 44 66
42 26 -1 49 2 52 6 9 15 17 10 11 -6z m143 -54 c-5 -11 -15 -23 -21 -27 -6 -3
-3 5 6 20 20 30 30 35 15 7z m-301 -14 c-9 -7 -19 -23 -23 -35 -5 -13 -11 -21
-14 -17 -10 10 -9 55 0 49 4 -3 8 -1 8 5 0 10 31 20 40 13 3 -2 -2 -9 -11 -15z
m-286 1 c3 -10 7 -10 17 -1 13 12 40 7 40 -8 0 -4 -8 -6 -17 -2 -16 6 -15 3 2
-17 17 -20 18 -23 3 -17 -14 5 -18 1 -18 -14 0 -11 -4 -18 -9 -15 -5 4 -11 2
-13 -3 -1 -5 -14 0 -28 11 -16 14 -21 22 -12 25 6 3 12 16 12 29 0 25 15 33
23 12z m527 -17 c0 -5 -7 -12 -16 -15 -14 -5 -15 -4 -4 9 14 17 20 19 20 6z
m-309 -24 c-10 -9 -11 -8 -5 6 3 10 9 15 12 12 3 -3 0 -11 -7 -18z m403 1
c-10 -12 -25 -28 -31 -36 -7 -7 -13 -18 -13 -23 0 -5 -5 -9 -10 -9 -6 0 -3 12
7 28 25 40 45 62 56 62 6 0 2 -10 -9 -22z m-91 -19 c-6 -6 -9 -17 -7 -24 3 -6
-11 -24 -31 -39 -24 -19 -35 -23 -35 -13 0 19 26 40 40 32 5 -3 11 0 11 7 1 7
2 18 4 23 1 6 3 13 3 18 1 4 7 7 14 7 9 0 9 -3 1 -11z m457 -19 c0 -5 -4 -10
-9 -10 -6 0 -13 5 -16 10 -3 6 1 10 9 10 9 0 16 -4 16 -10z m-540 -34 c0 -3
-4 -8 -10 -11 -5 -3 -10 -1 -10 4 0 6 5 11 10 11 6 0 10 -2 10 -4z m-1038 -46
l40 0 -23 -25 -24 -24 -16 21 c-11 14 -18 17 -23 9 -4 -7 -3 -18 3 -25 16 -18
1 -28 -16 -11 -8 8 -25 15 -39 15 -14 0 -24 6 -24 14 0 16 47 37 68 30 8 -2
32 -4 54 -4z m1771 3 c-7 -2 -19 -2 -25 0 -7 3 -2 5 12 5 14 0 19 -2 13 -5z
m-1905 -43 c3 -7 0 -10 -6 -7 -5 4 -15 0 -22 -8 -7 -8 -19 -15 -26 -15 -14 0
-18 -12 -15 -38 3 -23 -28 -24 -64 -3 -42 24 -46 9 -7 -26 21 -20 22 -23 5
-14 -12 6 -33 11 -47 11 -14 0 -28 4 -31 10 -12 19 64 78 84 66 5 -3 11 1 15
9 3 9 18 14 43 13 21 -1 39 4 41 11 5 15 24 10 30 -9z m290 2 c2 -7 -2 -10
-12 -6 -9 3 -16 11 -16 16 0 13 23 5 28 -10z m190 -49 c37 -17 41 -32 11 -40
-13 -4 -17 -8 -9 -13 7 -4 -6 -12 -29 -18 -38 -9 -42 -8 -53 12 -6 11 -15 24
-20 27 -6 4 2 9 16 13 28 7 36 26 12 26 -8 0 -18 4 -21 10 -8 13 50 2 93 -17z
m1106 2 c-4 -8 -10 -15 -15 -15 -5 0 -9 7 -9 15 0 8 7 15 15 15 9 0 12 -6 9
-15z m499 8 c-7 -2 -21 -2 -30 0 -10 3 -4 5 12 5 17 0 24 -2 18 -5z m-2108
-23 c-10 -11 -22 -17 -26 -14 -15 9 -10 22 9 27 33 9 35 7 17 -13z m225 -30
c-20 -12 -81 -5 -91 11 -12 19 -11 29 1 29 6 0 10 -4 10 -9 0 -5 15 -14 32
-20 26 -9 30 -9 20 1 -17 17 -15 26 6 30 22 5 41 -30 22 -42z m-157 6 c16 -13
16 -14 -5 -18 -13 -2 -31 -2 -41 0 -14 3 -16 7 -6 18 14 17 29 17 52 0z m606
-107 l23 -30 -29 15 c-15 8 -37 21 -48 30 -20 15 -19 15 6 16 17 0 33 -10 48
-31z m812 -130 c-5 -13 -10 -18 -10 -11 -1 6 -8 12 -16 12 -12 0 -12 3 2 20
22 25 37 11 24 -21z m-1766 -89 c4 -6 -7 -10 -24 -10 -17 0 -31 5 -31 10 0 6
11 10 24 10 14 0 28 -4 31 -10z m275 -55 c13 -16 8 -18 -27 -9 -13 4 -23 10
-23 15 0 15 37 10 50 -6z m138 -35 c14 -8 12 -9 -8 -5 -14 3 -44 7 -66 8 -23
1 -40 6 -37 11 7 10 88 0 111 -14z m89 -26 c3 -8 -6 -8 -32 0 -19 6 -35 14
-35 17 0 11 63 -6 67 -17z m53 -14 c0 -5 -7 -10 -15 -10 -8 0 -15 5 -15 10 0
6 7 10 15 10 8 0 15 -4 15 -10z m98 -14 c13 -2 29 -9 35 -16 10 -10 8 -12 -6
-6 -10 3 -36 9 -58 12 -21 4 -39 11 -39 16 0 6 10 7 23 4 12 -4 32 -8 45 -10z
m182 -6 c0 -5 -4 -10 -10 -10 -5 0 -10 5 -10 10 0 6 5 10 10 10 6 0 10 -4 10
-10z m-860 -490 c8 -5 11 -10 5 -10 -5 0 -17 5 -25 10 -8 5 -10 10 -5 10 6 0
17 -5 25 -10z m50 -14 c0 -11 -19 -15 -25 -6 -3 5 1 10 9 10 9 0 16 -2 16 -4z
m64 -45 c10 -11 31 -23 47 -26 16 -4 29 -11 29 -16 0 -12 -1 -12 -41 7 -55 25
-63 30 -67 42 -6 19 13 14 32 -7z m498 -129 c-13 -4 -72 37 -72 50 0 5 19 -4
41 -19 23 -15 37 -29 31 -31z m180 -64 c-12 -12 -42 1 -42 18 0 11 5 11 25 2
14 -6 22 -15 17 -20z m-402 -113 c71 -7 150 -31 150 -46 0 -5 8 -9 18 -9 19 0
42 -18 42 -32 0 -13 -39 -9 -68 6 -15 8 -67 24 -115 35 -84 20 -147 45 -147
58 0 3 12 3 28 0 15 -3 56 -8 92 -12z m-367 -39 c52 -21 39 -39 -15 -20 -40
14 -57 28 -58 47 0 4 8 4 18 -2 9 -5 34 -16 55 -25z"/>
<path d="M1659 1703 c-13 -16 -12 -17 4 -4 16 13 21 21 13 21 -2 0 -10 -8 -17
-17z"/>
</g>
</svg>
